<svg version="1.2" xmlns="http://www.w3.org/2000/svg" viewBox="0 0 48 48" width="48" height="48"><style>.a{fill:#0a66c2}.b{fill:#fff}</style><path class="a" d="m38.1 9.9c3.8 3.7 5.9 8.8 5.9 14.1 0 5.3-2.1 10.4-5.9 14.1-3.7 3.8-8.8 5.9-14.1 5.9-5.3 0-10.4-2.1-14.1-5.9-3.8-3.7-5.9-8.8-5.9-14.1 0-5.3 2.1-10.4 5.9-14.1 3.7-3.8 8.8-5.9 14.1-5.9 5.3 0 10.4 2.1 14.1 5.9z"/><path fill-rule="evenodd" class="b" d="m14 19h4v15h-4zm4-4c0-1.1-0.8-2-2-2-1.2 0-2 0.9-2 2 0 1.1 0.8 2 2 2 1.2 0 2-0.9 2-2zm17 9.5c0-3-2.5-5.5-5.5-5.5-1.9 0-3.5 0.9-4.5 2.3v-2.3h-4v15h4v-8c0-1.7 1.3-3 3-3 1.7 0 3 1.3 3 3v8h4c0 0 0-9.1 0-9.5z"/></svg>