<svg version="1.2" xmlns="http://www.w3.org/2000/svg" viewBox="0 0 3000 3000" width="3000" height="3000">
	<title>waves_gradient-svg</title>
	<defs>
		<clipPath clipPathUnits="userSpaceOnUse" id="cp1">
			<path d="m0 0h3000v3000h-3000z"/>
		</clipPath>
		<linearGradient id="g1" x1="-459.3" y1="-746" x2="2988.1" y2="3534.3" gradientUnits="userSpaceOnUse">
			<stop offset="0" stop-color="#197047"/>
			<stop offset="1" stop-color="#4acf91"/>
		</linearGradient>
	</defs>
	<style>
		.s0 { opacity: .5;fill: none;stroke: url(#g1);stroke-linecap: round;stroke-width: 16 } 
	</style>
	<g id="Clip-Path" clip-path="url(#cp1)">
		<g id="Layer">
			<path id="Layer" class="s0" d="m14.5-292.2q1173.1-356.4 882.9 835.2-290.2 1191.6 882.9 835.2 1173.2-356.4 883 835.2-290.2 1191.6 882.9 835.2m-89.9 30.5q-1173.2 356.4-883-835.2 290.2-1191.6-882.9-835.2-1173.1 356.4-882.9-835.2 290.2-1191.6-883-835.2m3441.8 3371.3q-1173.1 356.4-882.9-835.2 290.2-1191.6-883-835.2-1173.1 356.4-882.9-835.2 290.2-1191.6-882.9-835.1m-90 30.5q1173.2-356.5 883 835.2-290.2 1191.6 882.9 835.1 1173.1-356.4 882.9 835.2-290.2 1191.6 883 835.2m-3621.7-3310.2q1173.1-356.4 882.9 835.2-290.2 1191.6 882.9 835.1 1173.2-356.4 883 835.2-290.2 1191.6 882.9 835.2m-89.9 30.5q-1173.2 356.5-883-835.2 290.2-1191.6-882.9-835.1-1173.1 356.4-882.9-835.2 290.2-1191.6-883-835.2m3441.8 3371.2q-1173.1 356.5-882.9-835.1 290.2-1191.7-883-835.2-1173.1 356.4-882.9-835.2 290.2-1191.6-882.9-835.2m3441.8 3371.3q-1173.2 356.4-883-835.2 290.2-1191.6-882.9-835.2-1173.1 356.4-882.9-835.2 290.2-1191.6-883-835.2m3441.8 3371.3q-1173.1 356.4-882.9-835.2 290.2-1191.6-882.9-835.2-1173.2 356.4-883-835.2 290.2-1191.6-882.9-835.2"/>
		</g>
	</g>
</svg>